<svg width="190" height="36" viewBox="0 0 190 36" fill="none" xmlns="http://www.w3.org/2000/svg">
<path d="M0 7V7.27142V23.0681L2.48387 24.588L10.0484 13.1341L0 7Z" fill="#05365B"/>
<path d="M2.35987 23.676L4.12253 24.7536L10.6644 14.8586L8.9017 13.781L2.35987 23.676Z" fill="white"/>
<path d="M8.91933 13.7855L10.6693 14.8712L4.12094 24.7509" fill="#DFE2E5"/>
<path d="M0 7L10.0484 13.1341L2.48387 24.588" fill="#00263D"/>
<path d="M3.95161 17.4225C3.6129 17.9654 2.87903 18.0739 2.37097 17.7482C1.80645 17.4225 1.69355 16.7168 2.03226 16.2283C2.37097 15.6854 3.10484 15.5769 3.6129 15.9026C4.12097 16.2283 4.29032 16.934 3.95161 17.4225Z" fill="#FFC114"/>
<path d="M35 7.27142V7L24.9516 13.1341L32.5161 24.588L35 23.0681V7.27142Z" fill="#81C4EF"/>
<path d="M28.5081 26.9222C30.6532 25.6194 31.2177 22.7966 29.75 20.6253L27.9435 17.9111C26.4758 15.7397 23.5968 15.034 21.4516 16.3369L15.0161 20.2453C12.871 21.5481 12.3065 24.3709 13.7742 26.5422L15.5806 29.2564C17.0484 31.4278 19.9274 32.1335 22.0726 30.8307L28.5081 26.9222Z" fill="#E29D81"/>
<path d="M27.7177 27.4108C28.508 26.9222 28.7338 25.8908 28.2258 25.1309C27.7177 24.3709 26.6451 24.1538 25.8548 24.6423L14 31.8621C13.2096 32.3506 12.9838 33.382 13.4919 34.142C14 34.902 15.0725 35.1191 15.8629 34.6306L27.7177 27.4108Z" fill="#E29D81"/>
<path d="M13.8307 26.5422L15.6371 29.2564C17.1049 31.4278 19.9839 32.1335 22.129 30.8307L28.5645 26.9222C30.7097 25.6194 31.2742 22.7966 29.8065 20.6253L28 17.9111" fill="#D3856A"/>
<path d="M20.379 24.7509C21.1694 24.2623 21.3952 23.2309 20.8871 22.4709C20.379 21.711 19.3065 21.4938 18.5161 21.9824L6.66131 29.2564C5.87099 29.745 5.64518 30.7764 6.15324 31.5364C6.66131 32.2964 7.73389 32.5135 8.52421 32.0249L20.379 24.7509Z" fill="#E29D81"/>
<path d="M22.8629 26.9222C23.6532 26.4337 23.879 25.4023 23.3709 24.6423C22.8629 23.8823 21.7903 23.6652 21 24.1537L9.14513 31.4278C8.35481 31.9164 8.129 32.9478 8.63707 33.7077C9.14513 34.4677 10.2177 34.6848 11.008 34.1963L22.8629 26.9222Z" fill="#E29D81"/>
<path d="M20.3226 21.0053C21.1129 20.5167 21.3387 19.4853 20.8306 18.7253C20.3226 17.9654 19.25 17.7482 18.4597 18.2368L6.60482 25.5109C5.8145 25.9994 5.58869 27.0308 6.09676 27.7908C6.60482 28.5508 7.6774 28.7679 8.46772 28.2793L20.3226 21.0053Z" fill="#E29D81"/>
<path d="M22.6935 15.794C22.6935 15.794 16.0322 16.7168 15.4677 16.8797C14.9597 17.0425 13.379 20.7339 15.1855 21.1681C17.0484 21.6024 19.9838 19.3225 19.9838 19.3225L22.6935 15.794Z" fill="#E29D81"/>
<path d="M26.0841 13.7568L24.3213 14.8346L30.8647 24.7302L32.6275 23.6523L26.0841 13.7568Z" fill="white"/>
<path d="M26.0806 13.7855L24.3306 14.8712L30.879 24.7509" fill="#DFE2E5"/>
<path d="M35 7L24.9516 13.1341L32.5161 24.588" fill="#81C4EF"/>
<path d="M28.3387 29.2022L27.2661 28.5508C27.8871 28.605 28.5645 28.3336 28.9032 27.7908C29.4113 27.0308 29.1855 25.9994 28.3951 25.5109L20.4919 20.6796C21.0564 19.5396 19.9274 17.0968 19.5322 16.934C19.0242 16.7711 12.9274 15.9569 12.3629 15.8483C10.4435 15.3055 8.24193 16.1197 7.05645 17.9111L5.25 20.6253C3.78226 22.7967 4.34677 25.6194 6.49193 26.9222L7 27.2479C7.05645 27.3022 7.16935 27.4108 7.28225 27.4651L19.1371 34.7391C19.9274 35.2277 21 35.0106 21.5081 34.2506C21.7903 33.8163 21.8468 33.3278 21.6774 32.8935L23.9355 34.3049C24.7258 34.7934 25.7984 34.5763 26.3064 33.8163C26.7016 33.2735 26.6451 32.5678 26.3064 32.0792L26.4193 32.1335C27.2097 32.6221 28.2822 32.4049 28.7903 31.6449C29.4113 30.7221 29.1855 29.6907 28.3387 29.2022Z" fill="#F9BDA0"/>
<path d="M19.7017 34.0877C19.3629 33.8706 19.25 33.4906 19.4758 33.1649L19.7017 32.7849C19.9275 32.4592 20.3226 32.3506 20.6613 32.5678C21 32.7849 21.1129 33.1649 20.8871 33.4906L20.6613 33.8706C20.492 34.1963 20.0404 34.3049 19.7017 34.0877Z" fill="#FFE4C7"/>
<path d="M27.0403 31.4278C26.7016 31.2107 26.5887 30.8307 26.8145 30.505L27.0403 30.125C27.2661 29.7993 27.6613 29.6907 28 29.9079C28.3387 30.125 28.4516 30.505 28.2258 30.8307L28 31.2107C27.8306 31.5364 27.379 31.6449 27.0403 31.4278Z" fill="#FFE4C7"/>
<path d="M24.5565 33.5992C24.2177 33.382 24.1048 33.002 24.3306 32.6763L24.5565 32.2963C24.7823 31.9706 25.1774 31.8621 25.5161 32.0792C25.8548 32.2964 25.9677 32.6763 25.7419 33.002L25.5161 33.382C25.2903 33.7077 24.8952 33.8163 24.5565 33.5992Z" fill="#FFE4C7"/>
<path d="M27.0968 27.7365C26.7581 27.5194 26.6452 27.1394 26.871 26.8137L27.0968 26.4337C27.3226 26.108 27.7177 25.9994 28.0564 26.2165C28.3952 26.4337 28.5081 26.8137 28.2822 27.1394L28.1129 27.5194C27.8871 27.8451 27.4355 27.8993 27.0968 27.7365Z" fill="#FFE4C7"/>
<path d="M28.3952 25.4566L20.492 20.6253C21.0565 19.4853 19.9274 17.0425 19.5323 16.8797C19.3065 16.7711 17.7258 16.554 16.0887 16.3369L14.2823 21.7653L29.1291 26.3251C29.0162 25.9994 28.7903 25.6737 28.3952 25.4566Z" fill="#E8AB92"/>
<path d="M20.8871 17.2597C21.3952 18.0739 21.621 20.191 20.9435 20.571L15.2419 21.7653C14.5645 22.1452 13.6613 21.7653 13.1532 21.0053C12.6452 20.191 12.8145 19.2682 13.4919 18.8882L17.5565 16.6083C18.2339 16.2283 20.3226 16.3369 20.8306 17.0968L20.8871 17.2597Z" fill="#E29D81"/>
<path d="M54.712 28.024L51.784 24.856C51.064 25.064 50.272 25.168 49.408 25.168C47.856 25.168 46.424 24.808 45.112 24.088C43.816 23.352 42.784 22.336 42.016 21.04C41.264 19.728 40.888 18.256 40.888 16.624C40.888 14.992 41.264 13.528 42.016 12.232C42.784 10.936 43.816 9.928 45.112 9.208C46.424 8.472 47.856 8.104 49.408 8.104C50.976 8.104 52.408 8.472 53.704 9.208C55.016 9.928 56.048 10.936 56.8 12.232C57.552 13.528 57.928 14.992 57.928 16.624C57.928 18.16 57.592 19.552 56.92 20.8C56.264 22.032 55.352 23.024 54.184 23.776L58.192 28.024H54.712ZM43.696 16.624C43.696 17.824 43.936 18.888 44.416 19.816C44.912 20.728 45.592 21.44 46.456 21.952C47.32 22.448 48.304 22.696 49.408 22.696C50.512 22.696 51.496 22.448 52.36 21.952C53.224 21.44 53.896 20.728 54.376 19.816C54.872 18.888 55.12 17.824 55.12 16.624C55.12 15.424 54.872 14.368 54.376 13.456C53.896 12.544 53.224 11.84 52.36 11.344C51.496 10.848 50.512 10.6 49.408 10.6C48.304 10.6 47.32 10.848 46.456 11.344C45.592 11.84 44.912 12.544 44.416 13.456C43.936 14.368 43.696 15.424 43.696 16.624ZM72.6666 11.776V25H69.9306V23.44C69.4986 23.984 68.9306 24.416 68.2266 24.736C67.5386 25.04 66.8026 25.192 66.0186 25.192C64.9786 25.192 64.0426 24.976 63.2106 24.544C62.3946 24.112 61.7466 23.472 61.2666 22.624C60.8026 21.776 60.5706 20.752 60.5706 19.552V11.776H63.2826V19.144C63.2826 20.328 63.5786 21.24 64.1706 21.88C64.7626 22.504 65.5706 22.816 66.5946 22.816C67.6186 22.816 68.4266 22.504 69.0186 21.88C69.6266 21.24 69.9306 20.328 69.9306 19.144V11.776H72.6666ZM77.6686 10.024C77.1726 10.024 76.7566 9.856 76.4206 9.52C76.0846 9.184 75.9166 8.768 75.9166 8.272C75.9166 7.776 76.0846 7.36 76.4206 7.024C76.7566 6.688 77.1726 6.52 77.6686 6.52C78.1486 6.52 78.5566 6.688 78.8926 7.024C79.2286 7.36 79.3966 7.776 79.3966 8.272C79.3966 8.768 79.2286 9.184 78.8926 9.52C78.5566 9.856 78.1486 10.024 77.6686 10.024ZM79.0126 11.776V25H76.2766V11.776H79.0126ZM81.6927 18.376C81.6927 17.016 81.9647 15.824 82.5087 14.8C83.0687 13.76 83.8367 12.96 84.8127 12.4C85.7887 11.84 86.9087 11.56 88.1727 11.56C89.7727 11.56 91.0927 11.944 92.1327 12.712C93.1887 13.464 93.9007 14.544 94.2687 15.952H91.3167C91.0767 15.296 90.6927 14.784 90.1647 14.416C89.6367 14.048 88.9727 13.864 88.1727 13.864C87.0527 13.864 86.1567 14.264 85.4847 15.064C84.8287 15.848 84.5007 16.952 84.5007 18.376C84.5007 19.8 84.8287 20.912 85.4847 21.712C86.1567 22.512 87.0527 22.912 88.1727 22.912C89.7567 22.912 90.8047 22.216 91.3167 20.824H94.2687C93.8847 22.168 93.1647 23.24 92.1087 24.04C91.0527 24.824 89.7407 25.216 88.1727 25.216C86.9087 25.216 85.7887 24.936 84.8127 24.376C83.8367 23.8 83.0687 23 82.5087 21.976C81.9647 20.936 81.6927 19.736 81.6927 18.376ZM102.227 18.4L108.323 25H104.627L99.7313 19.312V25H96.9953V7.24H99.7313V17.56L104.531 11.776H108.323L102.227 18.4ZM116.568 16.624C116.568 14.992 116.944 13.528 117.696 12.232C118.464 10.936 119.496 9.928 120.792 9.208C122.104 8.472 123.536 8.104 125.088 8.104C126.864 8.104 128.44 8.544 129.816 9.424C131.208 10.288 132.216 11.52 132.84 13.12H129.552C129.12 12.288 128.52 11.664 127.752 11.248C126.984 10.816 126.096 10.6 125.088 10.6C123.984 10.6 123 10.848 122.136 11.344C121.272 11.84 120.592 12.544 120.096 13.456C119.616 14.368 119.376 15.424 119.376 16.624C119.376 17.824 119.616 18.888 120.096 19.816C120.592 20.728 121.272 21.432 122.136 21.928C123 22.424 123.984 22.672 125.088 22.672C126.096 22.672 126.984 22.464 127.752 22.048C128.52 21.616 129.12 20.984 129.552 20.152H132.84C132.216 21.752 131.208 22.984 129.816 23.848C128.44 24.712 126.864 25.144 125.088 25.144C123.52 25.144 122.088 24.784 120.792 24.064C119.496 23.328 118.464 22.312 117.696 21.016C116.944 19.72 116.568 18.256 116.568 16.624ZM138.778 14.08C139.178 13.28 139.706 12.664 140.362 12.232C141.034 11.784 141.826 11.56 142.738 11.56V14.392H142.042C140.97 14.392 140.154 14.664 139.594 15.208C139.05 15.752 138.778 16.696 138.778 18.04V25H136.042V11.776H138.778V14.08ZM157.373 18.016C157.373 18.48 157.341 18.912 157.277 19.312H147.149C147.229 20.416 147.621 21.296 148.325 21.952C149.029 22.592 149.901 22.912 150.941 22.912C152.413 22.912 153.453 22.296 154.061 21.064H157.013C156.613 22.28 155.885 23.28 154.829 24.064C153.789 24.832 152.493 25.216 150.941 25.216C149.677 25.216 148.541 24.936 147.533 24.376C146.541 23.8 145.757 23 145.181 21.976C144.621 20.936 144.341 19.736 144.341 18.376C144.341 17.016 144.613 15.824 145.157 14.8C145.717 13.76 146.493 12.96 147.485 12.4C148.493 11.84 149.645 11.56 150.941 11.56C152.189 11.56 153.301 11.832 154.277 12.376C155.253 12.92 156.013 13.68 156.557 14.656C157.101 15.632 157.373 16.752 157.373 18.016ZM154.517 17.344C154.501 16.272 154.141 15.424 153.437 14.8C152.749 14.176 151.877 13.864 150.821 13.864C149.861 13.864 149.037 14.176 148.349 14.8C147.677 15.424 147.285 16.272 147.173 17.344H154.517ZM159.154 18.328C159.154 17 159.426 15.824 159.97 14.8C160.53 13.776 161.282 12.984 162.226 12.424C163.186 11.848 164.25 11.56 165.418 11.56C166.282 11.56 167.13 11.752 167.962 12.136C168.81 12.504 169.482 13 169.978 13.624V7.24H172.738V25H169.978V23.008C169.53 23.648 168.906 24.176 168.106 24.592C167.322 25.008 166.418 25.216 165.394 25.216C164.242 25.216 163.186 24.928 162.226 24.352C161.282 23.76 160.53 22.944 159.97 21.904C159.426 20.848 159.154 19.656 159.154 18.328ZM169.978 18.376C169.978 17.464 169.786 16.672 169.402 16C169.034 15.328 168.546 14.816 167.938 14.464C167.33 14.112 166.674 13.936 165.97 13.936C165.266 13.936 164.61 14.112 164.002 14.464C163.394 14.8 162.898 15.304 162.514 15.976C162.146 16.632 161.962 17.416 161.962 18.328C161.962 19.24 162.146 20.04 162.514 20.728C162.898 21.416 163.394 21.944 164.002 22.312C164.626 22.664 165.282 22.84 165.97 22.84C166.674 22.84 167.33 22.664 167.938 22.312C168.546 21.96 169.034 21.448 169.402 20.776C169.786 20.088 169.978 19.288 169.978 18.376ZM177.723 10.024C177.227 10.024 176.811 9.856 176.475 9.52C176.139 9.184 175.971 8.768 175.971 8.272C175.971 7.776 176.139 7.36 176.475 7.024C176.811 6.688 177.227 6.52 177.723 6.52C178.203 6.52 178.611 6.688 178.947 7.024C179.283 7.36 179.451 7.776 179.451 8.272C179.451 8.768 179.283 9.184 178.947 9.52C178.611 9.856 178.203 10.024 177.723 10.024ZM179.067 11.776V25H176.331V11.776H179.067ZM185.851 14.008V21.328C185.851 21.824 185.963 22.184 186.187 22.408C186.427 22.616 186.827 22.72 187.387 22.72H189.067V25H186.907C185.675 25 184.731 24.712 184.075 24.136C183.419 23.56 183.091 22.624 183.091 21.328V14.008H181.531V11.776H183.091V8.488H185.851V11.776H189.067V14.008H185.851Z" fill="#1E3056"/>
</svg>
