 <svg width="25" height="14" viewBox="0 0 11 9" fill="#1e3056"
                                xmlns="http://www.w3.org/2000/svg">
                                <rect width="11" height="9" fill="#1e3056" fill-opacity="0"></rect>
                                <path
                                    d="M10.6074 5.07783H9.10546V3.6393H10.6074C10.7157 3.62704 10.8154 3.5788 10.8878 3.50366C10.9601 3.42852 11 3.33168 11 3.23138C11 3.13107 10.9601 3.03423 10.8878 2.95909C10.8154 2.88396 10.7157 2.83571 10.6074 2.82345H9.10546V0.822871C9.12491 0.597897 9.06321 0.373298 8.92988 0.183756C8.87669 0.122604 8.8083 0.0740747 8.73046 0.0422482C8.65262 0.0104217 8.5676 -0.00377405 8.48255 0.000856412C8.39987 -0.00347689 8.31727 0.0107177 8.24188 0.0422207C8.16649 0.0737237 8.10056 0.12159 8.04976 0.181698C7.91925 0.371813 7.85958 0.595781 7.87978 0.81979V2.82037H5.04596L3.84154 1.00577C3.73865 0.843423 3.64136 0.692375 3.54742 0.546467C3.47667 0.433635 3.39428 0.327314 3.30139 0.228966C3.23371 0.159455 3.15207 0.102586 3.06095 0.0614781C2.95816 0.0186534 2.8461 -0.00207766 2.73328 0.000856412C2.56683 0.00069252 2.40465 0.049281 2.2703 0.13957C2.13295 0.224987 2.02723 0.346861 1.96724 0.488926C1.90391 0.689021 1.87634 0.897232 1.8856 1.10544V2.82448H0.392644C0.284294 2.83674 0.184565 2.88498 0.112243 2.96012C0.0399212 3.03526 0 3.1321 0 3.2324C0 3.33271 0.0399212 3.42955 0.112243 3.50469C0.184565 3.57982 0.284294 3.62807 0.392644 3.64033H1.88448V5.07886H0.392644C0.284294 5.09112 0.184565 5.13936 0.112243 5.2145C0.0399212 5.28963 0 5.38648 0 5.48678C0 5.58709 0.0399212 5.68393 0.112243 5.75906C0.184565 5.8342 0.284294 5.88244 0.392644 5.89471H1.88448V8.17785C1.86573 8.40015 1.92831 8.62182 2.06229 8.80772C2.11502 8.86968 2.18317 8.91911 2.26102 8.95183C2.33886 8.98455 2.42412 8.99962 2.50962 8.99576C2.59511 8.99882 2.68019 8.98329 2.75792 8.95044C2.83565 8.91759 2.90384 8.86833 2.95695 8.80669C3.09398 8.62196 3.15792 8.39964 3.13811 8.17683V5.89471H5.70465L7.0936 8.0155C7.18978 8.15525 7.28931 8.29704 7.38884 8.43576C7.47264 8.55369 7.57013 8.6629 7.6796 8.76148C7.76421 8.83939 7.86499 8.90088 7.97596 8.94233C8.09404 8.98231 8.21917 9.00182 8.345 8.99987C8.72076 8.99987 9.10434 8.88581 9.10434 8.03708V5.89471H10.6074C10.7157 5.88244 10.8154 5.8342 10.8878 5.75906C10.9601 5.68393 11 5.58709 11 5.48678C11 5.38648 10.9601 5.28963 10.8878 5.2145C10.8154 5.13936 10.7157 5.09112 10.6074 5.07886V5.07783ZM7.87643 3.6393V5.07783H6.54563L5.58835 3.6393H7.87643ZM3.14035 1.98088L3.69056 2.82139H3.14035V1.98088ZM3.14035 5.07886V3.64033H4.22624L5.17122 5.07886H3.14035ZM7.8809 7.09074L7.08689 5.89471H7.8809V7.09074Z"
                                    fill="#1e3056"></path>
                            </svg>